<svg xmlns="http://www.w3.org/2000/svg" width="840" height="400" viewBox="0 0 840 400" role="img" aria-label="Lines by category">
<title>Lines by category</title>
<text x="76" y="26" font-family="sans-serif" font-size="15" font-weight="600" fill="#8b949e">Lines by category</text>
<line x1="76" y1="350.0" x2="672" y2="350.0" stroke="#8b949e" stroke-opacity="0.22" stroke-width="1"/>
<text x="66" y="354.0" font-family="sans-serif" font-size="11" fill="#8b949e" text-anchor="end">0</text>
<line x1="76" y1="289.2" x2="672" y2="289.2" stroke="#8b949e" stroke-opacity="0.22" stroke-width="1"/>
<text x="66" y="293.2" font-family="sans-serif" font-size="11" fill="#8b949e" text-anchor="end">8,000</text>
<line x1="76" y1="228.4" x2="672" y2="228.4" stroke="#8b949e" stroke-opacity="0.22" stroke-width="1"/>
<text x="66" y="232.4" font-family="sans-serif" font-size="11" fill="#8b949e" text-anchor="end">16,000</text>
<line x1="76" y1="167.6" x2="672" y2="167.6" stroke="#8b949e" stroke-opacity="0.22" stroke-width="1"/>
<text x="66" y="171.6" font-family="sans-serif" font-size="11" fill="#8b949e" text-anchor="end">24,000</text>
<line x1="76" y1="106.8" x2="672" y2="106.8" stroke="#8b949e" stroke-opacity="0.22" stroke-width="1"/>
<text x="66" y="110.8" font-family="sans-serif" font-size="11" fill="#8b949e" text-anchor="end">32,000</text>
<line x1="76" y1="46.0" x2="672" y2="46.0" stroke="#8b949e" stroke-opacity="0.22" stroke-width="1"/>
<text x="66" y="50.0" font-family="sans-serif" font-size="11" fill="#8b949e" text-anchor="end">40,000</text>
<text x="16" y="198.0" font-family="sans-serif" font-size="11" fill="#8b949e" text-anchor="middle" transform="rotate(-90 16 198.0)">lines</text>
<text x="76.0" y="370.0" font-family="sans-serif" font-size="11" fill="#8b949e" text-anchor="middle">2026-06</text>
<text x="225.0" y="370.0" font-family="sans-serif" font-size="11" fill="#8b949e" text-anchor="middle">2026-07</text>
<text x="374.0" y="370.0" font-family="sans-serif" font-size="11" fill="#8b949e" text-anchor="middle">2026-08</text>
<text x="523.0" y="370.0" font-family="sans-serif" font-size="11" fill="#8b949e" text-anchor="middle">2026-09</text>
<text x="672.0" y="370.0" font-family="sans-serif" font-size="11" fill="#8b949e" text-anchor="middle">2026-10</text>
<polyline points="76.0,157.4 225.0,144.0 374.0,137.3 523.0,133.4 672.0,133.4" fill="none" stroke="#58a6ff" stroke-width="2.5" stroke-linejoin="round" stroke-linecap="round"/>
<circle cx="76.0" cy="157.4" r="3" fill="#58a6ff"/>
<circle cx="225.0" cy="144.0" r="3" fill="#58a6ff"/>
<circle cx="374.0" cy="137.3" r="3" fill="#58a6ff"/>
<circle cx="523.0" cy="133.4" r="3" fill="#58a6ff"/>
<circle cx="672.0" cy="133.4" r="3" fill="#58a6ff"/>
<polyline points="76.0,190.5 225.0,138.0 374.0,83.2 523.0,60.7 672.0,60.7" fill="none" stroke="#3fb950" stroke-width="2.5" stroke-linejoin="round" stroke-linecap="round"/>
<circle cx="76.0" cy="190.5" r="3" fill="#3fb950"/>
<circle cx="225.0" cy="138.0" r="3" fill="#3fb950"/>
<circle cx="374.0" cy="83.2" r="3" fill="#3fb950"/>
<circle cx="523.0" cy="60.7" r="3" fill="#3fb950"/>
<circle cx="672.0" cy="60.7" r="3" fill="#3fb950"/>
<polyline points="76.0,252.7 225.0,254.1 374.0,254.5 523.0,253.8 672.0,253.8" fill="none" stroke="#d29922" stroke-width="2.5" stroke-linejoin="round" stroke-linecap="round"/>
<circle cx="76.0" cy="252.7" r="3" fill="#d29922"/>
<circle cx="225.0" cy="254.1" r="3" fill="#d29922"/>
<circle cx="374.0" cy="254.5" r="3" fill="#d29922"/>
<circle cx="523.0" cy="253.8" r="3" fill="#d29922"/>
<circle cx="672.0" cy="253.8" r="3" fill="#d29922"/>
<polyline points="76.0,329.3 225.0,330.1 374.0,328.8 523.0,329.2 672.0,329.2" fill="none" stroke="#a371f7" stroke-width="2.5" stroke-linejoin="round" stroke-linecap="round"/>
<circle cx="76.0" cy="329.3" r="3" fill="#a371f7"/>
<circle cx="225.0" cy="330.1" r="3" fill="#a371f7"/>
<circle cx="374.0" cy="328.8" r="3" fill="#a371f7"/>
<circle cx="523.0" cy="329.2" r="3" fill="#a371f7"/>
<circle cx="672.0" cy="329.2" r="3" fill="#a371f7"/>
<polyline points="76.0,329.9 225.0,329.9 374.0,329.9 523.0,328.1 672.0,328.1" fill="none" stroke="#39c5cf" stroke-width="2.5" stroke-linejoin="round" stroke-linecap="round"/>
<circle cx="76.0" cy="329.9" r="3" fill="#39c5cf"/>
<circle cx="225.0" cy="329.9" r="3" fill="#39c5cf"/>
<circle cx="374.0" cy="329.9" r="3" fill="#39c5cf"/>
<circle cx="523.0" cy="328.1" r="3" fill="#39c5cf"/>
<circle cx="672.0" cy="328.1" r="3" fill="#39c5cf"/>
<polyline points="76.0,342.2 225.0,321.2 374.0,316.6 523.0,342.2 672.0,342.2" fill="none" stroke="#db6d28" stroke-width="2.5" stroke-linejoin="round" stroke-linecap="round"/>
<circle cx="76.0" cy="342.2" r="3" fill="#db6d28"/>
<circle cx="225.0" cy="321.2" r="3" fill="#db6d28"/>
<circle cx="374.0" cy="316.6" r="3" fill="#db6d28"/>
<circle cx="523.0" cy="342.2" r="3" fill="#db6d28"/>
<circle cx="672.0" cy="342.2" r="3" fill="#db6d28"/>
<polyline points="76.0,246.6 225.0,246.0 374.0,240.0 523.0,247.5 672.0,247.5" fill="none" stroke="#ff7b72" stroke-width="2.5" stroke-linejoin="round" stroke-linecap="round"/>
<circle cx="76.0" cy="246.6" r="3" fill="#ff7b72"/>
<circle cx="225.0" cy="246.0" r="3" fill="#ff7b72"/>
<circle cx="374.0" cy="240.0" r="3" fill="#ff7b72"/>
<circle cx="523.0" cy="247.5" r="3" fill="#ff7b72"/>
<circle cx="672.0" cy="247.5" r="3" fill="#ff7b72"/>
<rect x="694" y="45" width="14" height="4" rx="2" fill="#58a6ff"/>
<text x="716" y="52" font-family="sans-serif" font-size="12" fill="#8b949e">app</text>
<text x="716" y="67" font-family="sans-serif" font-size="10" fill="#8b949e" fill-opacity="0.75">28,497</text>
<rect x="694" y="75" width="14" height="4" rx="2" fill="#3fb950"/>
<text x="716" y="82" font-family="sans-serif" font-size="12" fill="#8b949e">tests</text>
<text x="716" y="97" font-family="sans-serif" font-size="10" fill="#8b949e" fill-opacity="0.75">38,067</text>
<rect x="694" y="105" width="14" height="4" rx="2" fill="#d29922"/>
<text x="716" y="112" font-family="sans-serif" font-size="12" fill="#8b949e">templates</text>
<text x="716" y="127" font-family="sans-serif" font-size="10" fill="#8b949e" fill-opacity="0.75">12,660</text>
<rect x="694" y="135" width="14" height="4" rx="2" fill="#a371f7"/>
<text x="716" y="142" font-family="sans-serif" font-size="12" fill="#8b949e">js</text>
<text x="716" y="157" font-family="sans-serif" font-size="10" fill="#8b949e" fill-opacity="0.75">2,743</text>
<rect x="694" y="165" width="14" height="4" rx="2" fill="#39c5cf"/>
<text x="716" y="172" font-family="sans-serif" font-size="12" fill="#8b949e">css</text>
<text x="716" y="187" font-family="sans-serif" font-size="10" fill="#8b949e" fill-opacity="0.75">2,884</text>
<rect x="694" y="195" width="14" height="4" rx="2" fill="#db6d28"/>
<text x="716" y="202" font-family="sans-serif" font-size="12" fill="#8b949e">migrations</text>
<text x="716" y="217" font-family="sans-serif" font-size="10" fill="#8b949e" fill-opacity="0.75">1,023</text>
<rect x="694" y="225" width="14" height="4" rx="2" fill="#ff7b72"/>
<text x="716" y="232" font-family="sans-serif" font-size="12" fill="#8b949e">docs</text>
<text x="716" y="247" font-family="sans-serif" font-size="10" fill="#8b949e" fill-opacity="0.75">13,493</text>
</svg>
