<svg xmlns="http://www.w3.org/2000/svg" width="840" height="400" viewBox="0 0 840 400" role="img" aria-label="feat: commits per month">
<title>feat: commits per month</title>
<text x="76" y="26" font-family="sans-serif" font-size="15" font-weight="600" fill="#8b949e">feat: commits per month</text>
<line x1="76" y1="350.0" x2="672" y2="350.0" stroke="#8b949e" stroke-opacity="0.22" stroke-width="1"/>
<text x="66" y="354.0" font-family="sans-serif" font-size="11" fill="#8b949e" text-anchor="end">0</text>
<line x1="76" y1="289.2" x2="672" y2="289.2" stroke="#8b949e" stroke-opacity="0.22" stroke-width="1"/>
<text x="66" y="293.2" font-family="sans-serif" font-size="11" fill="#8b949e" text-anchor="end">10</text>
<line x1="76" y1="228.4" x2="672" y2="228.4" stroke="#8b949e" stroke-opacity="0.22" stroke-width="1"/>
<text x="66" y="232.4" font-family="sans-serif" font-size="11" fill="#8b949e" text-anchor="end">20</text>
<line x1="76" y1="167.6" x2="672" y2="167.6" stroke="#8b949e" stroke-opacity="0.22" stroke-width="1"/>
<text x="66" y="171.6" font-family="sans-serif" font-size="11" fill="#8b949e" text-anchor="end">30</text>
<line x1="76" y1="106.8" x2="672" y2="106.8" stroke="#8b949e" stroke-opacity="0.22" stroke-width="1"/>
<text x="66" y="110.8" font-family="sans-serif" font-size="11" fill="#8b949e" text-anchor="end">40</text>
<line x1="76" y1="46.0" x2="672" y2="46.0" stroke="#8b949e" stroke-opacity="0.22" stroke-width="1"/>
<text x="66" y="50.0" font-family="sans-serif" font-size="11" fill="#8b949e" text-anchor="end">50</text>
<text x="16" y="198.0" font-family="sans-serif" font-size="11" fill="#8b949e" text-anchor="middle" transform="rotate(-90 16 198.0)">commits</text>
<text x="150.5" y="370.0" font-family="sans-serif" font-size="11" fill="#8b949e" text-anchor="middle">2026-06</text>
<text x="299.5" y="370.0" font-family="sans-serif" font-size="11" fill="#8b949e" text-anchor="middle">2026-07</text>
<text x="448.5" y="370.0" font-family="sans-serif" font-size="11" fill="#8b949e" text-anchor="middle">2026-08</text>
<text x="597.5" y="370.0" font-family="sans-serif" font-size="11" fill="#8b949e" text-anchor="middle">2026-09</text>
<rect x="127.5" y="100.7" width="46.0" height="249.3" fill="#58a6ff" rx="2"/>
<text x="150.5" y="93.7" font-family="sans-serif" font-size="11" fill="#8b949e" text-anchor="middle">41</text>
<rect x="276.5" y="70.3" width="46.0" height="279.7" fill="#58a6ff" rx="2"/>
<text x="299.5" y="63.3" font-family="sans-serif" font-size="11" fill="#8b949e" text-anchor="middle">46</text>
<rect x="425.5" y="313.5" width="46.0" height="36.5" fill="#58a6ff" rx="2"/>
<text x="448.5" y="306.5" font-family="sans-serif" font-size="11" fill="#8b949e" text-anchor="middle">6</text>
<rect x="574.5" y="319.6" width="46.0" height="30.4" fill="#58a6ff" rx="2"/>
<text x="597.5" y="312.6" font-family="sans-serif" font-size="11" fill="#8b949e" text-anchor="middle">5</text>
<rect x="694" y="45" width="14" height="4" rx="2" fill="#58a6ff"/>
<text x="716" y="52" font-family="sans-serif" font-size="12" fill="#8b949e">feat</text>
<text x="716" y="67" font-family="sans-serif" font-size="10" fill="#8b949e" fill-opacity="0.75">5</text>
</svg>
